<?xml version="1.0" encoding="utf-8"?>
<!-- Generator: Adobe Illustrator 24.2.1, SVG Export Plug-In . SVG Version: 6.00 Build 0)  -->
<svg version="1.1" id="Layer_1" xmlns="http://www.w3.org/2000/svg" xmlns:xlink="http://www.w3.org/1999/xlink" x="0px" y="0px"
	 viewBox="0 0 500 300" style="enable-background:new 0 0 500 300;" xml:space="preserve">
<style type="text/css">
	.st0{opacity:0.5;fill:#CDD8C7;enable-background:new    ;}
	.st1{fill:#EFFFE6;}
	.st2{fill:none;stroke:#4B6340;stroke-width:2;stroke-miterlimit:10;}
	.st3{fill:#FFFFFF;}
	.st4{fill:#4B6340;}
	.st5{fill:none;stroke:#4B6340;stroke-width:2;stroke-linecap:round;stroke-linejoin:round;}
	.st6{fill:#B6D3A7;}
	.st7{opacity:0.5;}
	.st8{fill:#CDD8C7;}
</style>
<path class="st0" d="M489,143c2.5,0,4.6-1.9,4.9-4.4c0-0.4,0.1-0.7,0.1-1.1c0-5.4-4.3-9.7-9.7-9.7l0,0h-0.6
	c-0.4-5.7-5.4-9.9-11.1-9.5c-5.4,0.4-9.6,4.9-9.5,10.4c0,0.3,0,0.5,0,0.8c-5-2.8-11.2-1-14,4c-0.7,1.3-1.2,2.8-1.3,4.3
	c0,0,0,0.1,0,0.1c-0.1,2.7,1.9,5,4.6,5.2c0.1,0,0.2,0,0.3,0L489,143z"/>
<path class="st0" d="M420.9,68c9.8,0,10.5-14.8,0.7-15.4c-0.3,0-0.6,0-1,0c-1.7,0-3.4,0.3-5,0.8c-1.6-9.3-10.4-15.5-19.6-13.9
	c-7.3,1.3-12.9,7.1-14,14.4c-3.4-1.6-7.3-2-10.9-1c-8.5,2.3-6.5,15,2.3,15H420.9z"/>
<path class="st0" d="M275.1,39c12,0,12.7-18,0.8-18.7c-0.4,0-0.8,0-1.2,0c-2.1,0-4.2,0.3-6.1,1c-1.9-11.3-12.5-18.9-23.8-17
	c-9,1.5-15.9,8.7-17.1,17.7c-2.6-1.2-5.4-1.9-8.2-1.9c-1.5,0-3.1,0.2-4.6,0.6c-10.6,2.6-8.6,18.3,2.4,18.3H275.1z"/>
<path class="st1" d="M285.2,60.8c0,0,31.9-16.7,37.5,12.2s-28.9,29.2-28.9,29.2L285.2,60.8z"/>
<path class="st2" d="M285.2,60.8c0,0,31.9-16.7,37.5,12.2s-28.9,29.2-28.9,29.2L285.2,60.8z"/>
<path class="st2" d="M323.6,76c0,0,11.2-2,15.7-2s5.4,0.2,6.2,5.6s2,14.5,9.8,14.5H402"/>
<ellipse transform="matrix(0.9812 -0.1932 0.1932 0.9812 -10.5335 57.1155)" class="st3" cx="287.6" cy="82.6" rx="16" ry="28.7"/>
<ellipse transform="matrix(0.9812 -0.1932 0.1932 0.9812 -10.5335 57.1155)" class="st2" cx="287.6" cy="82.6" rx="16" ry="28.7"/>
<ellipse transform="matrix(0.9814 -0.1922 0.1922 0.9814 -10.9538 55.4628)" class="st3" cx="280.4" cy="84.2" rx="12.8" ry="27.3"/>
<ellipse transform="matrix(0.9814 -0.1922 0.1922 0.9814 -10.9538 55.4628)" class="st2" cx="280.4" cy="84.2" rx="12.8" ry="27.3"/>
<ellipse class="st4" cx="278" cy="75" rx="3" ry="4"/>
<ellipse class="st4" cx="282" cy="94" rx="3" ry="4"/>
<path class="st1" d="M215,111h-17.6c-12.2,0-22-9.8-22-22l0,0c0-12.2,9.8-22,22-22h16.2L215,111z"/>
<path class="st2" d="M215,111h-17.6c-12.2,0-22-9.8-22-22l0,0c0-12.2,9.8-22,22-22h16.2L215,111z"/>
<path class="st3" d="M216,99h30.1c1.6,0,2.9,1.3,2.9,2.9c0,0,0,0,0,0v1.2c0,1.6-1.3,2.9-2.9,2.9H216l0,0V99L216,99z"/>
<path class="st2" d="M216,99h30.1c1.6,0,2.9,1.3,2.9,2.9c0,0,0,0,0,0v1.2c0,1.6-1.3,2.9-2.9,2.9H216l0,0V99L216,99z"/>
<path class="st3" d="M216,70h30.1c1.6,0,2.9,1.3,2.9,2.9c0,0,0,0,0,0v1.2c0,1.6-1.3,2.9-2.9,2.8H216l0,0V70L216,70z"/>
<path class="st2" d="M216,70h30.1c1.6,0,2.9,1.3,2.9,2.9c0,0,0,0,0,0v1.2c0,1.6-1.3,2.9-2.9,2.8H216l0,0V70L216,70z"/>
<path class="st5" d="M95,51.2c0,0,31.7-4.2,34,2.3s2.5,9.6,1.4,22.3s9.8,13,15.8,12.8s35.6,0,35.6,0"/>
<path class="st3" d="M214.2,61h1.7c2.9,0,5.2,2.3,5.2,5.2v44.7c0,2.9-2.3,5.2-5.2,5.2h-1.7c-2.9,0-5.2-2.3-5.2-5.2V66.2
	C209,63.3,211.3,61,214.2,61z"/>
<path class="st2" d="M214.2,61h1.7c2.9,0,5.2,2.3,5.2,5.2v44.7c0,2.9-2.3,5.2-5.2,5.2h-1.7c-2.9,0-5.2-2.3-5.2-5.2V66.2
	C209,63.3,211.3,61,214.2,61z"/>
<path class="st2" d="M197.4,260h106.5c1.3-9.8,1.7-19.6,1.1-29.5c-1.4-25.2-7.1-44.2-17.3-56.9c-10.2-12.7-24.2-18.6-42.1-17.6
	c-17.9,1-31.2,8.4-40,22.1s-12.4,33.3-11.1,58.5C194.9,244.4,195.9,252.3,197.4,260z"/>
<path class="st1" d="M224.8,260h52.3c1-9.3,1.2-18.7,0.6-28c-1.1-19.6-4.1-33.7-9-42.3s-12.3-12.6-22-12.1
	c-9.7,0.5-16.6,5.4-20.6,14.5s-5.4,23.4-4.3,42.9C222.2,243.4,223.2,251.8,224.8,260z"/>
<path class="st2" d="M224.8,260h52.3c1-9.3,1.2-18.7,0.6-28c-1.1-19.6-4.1-33.7-9-42.3s-12.3-12.6-22-12.1
	c-9.7,0.5-16.6,5.4-20.6,14.5s-5.4,23.4-4.3,42.9C222.2,243.4,223.2,251.8,224.8,260z"/>
<path class="st4" d="M129.5,249.3c-3.5,2.9-8,4.2-12.5,3.7c-9.6-1-15.7-14-15.7-14c-0.5-1-1.7-1.6-2.8-1.4l-26.7,4.9
	c-1,0.2-1.7,1.1-1.5,2.1c0,0.1,0,0.1,0,0.2l4.7,13.5c0.6,1,1.6,1.7,2.8,1.8h84.4c1.2-0.1,2.3-0.8,2.8-1.9c0,0,5-11.8,5.9-20.1
	c1.4-13.1-1.9-24.2-9.9-33.2c-7.6-8.8-18.3-14.3-29.9-15.4c-7-0.8-16.5,1.2-16.5,1.2c-0.7,0.2-1.4-0.1-1.6-0.8
	c-0.1-0.2-0.1-0.5,0-0.8l2.7-17c0.2-1.1,1.2-1.9,2.3-1.8l48.6,5.3c1.1,0.1,2.1-0.7,2.2-1.8l2.8-25.9c0.1-1.1-0.7-2.1-1.8-2.2
	l-79.1-8.6c-1.1-0.1-2.1,0.7-2.3,1.8l-10.7,74c-0.1,1.1,0.6,2.2,1.7,2.5l23.8,6.4c1.2,0.3,2.5,0,3.6-0.6c0,0,6.8-4.5,12.7-3.8
	c6.1,0.7,10.6,3,13.3,6.9c2.6,3.7,3.8,8.2,3.3,12.7C135.2,242.4,133.1,246.4,129.5,249.3z"/>
<path class="st6" d="M51.5,289h21c0.3,0,0.5,0.2,0.5,0.5l0,0c0,0.3-0.2,0.5-0.5,0.5h-21c-0.3,0-0.5-0.2-0.5-0.5l0,0
	C51,289.3,51.2,289,51.5,289z"/>
<path class="st6" d="M112.5,288h21c0.3,0,0.5,0.2,0.5,0.5l0,0c0,0.3-0.2,0.5-0.5,0.5h-21c-0.3,0-0.5-0.2-0.5-0.5l0,0
	C112,288.3,112.2,288,112.5,288z"/>
<path class="st6" d="M157.5,281h21c0.3,0,0.5,0.2,0.5,0.5l0,0c0,0.3-0.2,0.5-0.5,0.5h-21c-0.3,0-0.5-0.2-0.5-0.5l0,0
	C157,281.3,157.2,281,157.5,281z"/>
<path class="st6" d="M193.5,295h21c0.3,0,0.5,0.2,0.5,0.5l0,0c0,0.3-0.2,0.5-0.5,0.5h-21c-0.3,0-0.5-0.2-0.5-0.5l0,0
	C193,295.3,193.2,295,193.5,295z"/>
<path class="st6" d="M265.5,289h21c0.3,0,0.5,0.2,0.5,0.5l0,0c0,0.3-0.2,0.5-0.5,0.5h-21c-0.3,0-0.5-0.2-0.5-0.5l0,0
	C265,289.3,265.2,289,265.5,289z"/>
<path class="st6" d="M351.5,290h21c0.3,0,0.5,0.2,0.5,0.5l0,0c0,0.3-0.2,0.5-0.5,0.5h-21c-0.3,0-0.5-0.2-0.5-0.5l0,0
	C351,290.3,351.2,290,351.5,290z"/>
<path class="st6" d="M81.5,272h21c0.3,0,0.5,0.2,0.5,0.5l0,0c0,0.3-0.2,0.5-0.5,0.5h-21c-0.3,0-0.5-0.2-0.5-0.5l0,0
	C81,272.3,81.2,272,81.5,272z"/>
<path class="st6" d="M231.5,278h21c0.3,0,0.5,0.2,0.5,0.5l0,0c0,0.3-0.2,0.5-0.5,0.5h-21c-0.3,0-0.5-0.2-0.5-0.5l0,0
	C231,278.3,231.2,278,231.5,278z"/>
<path class="st6" d="M387.5,278h21c0.3,0,0.5,0.2,0.5,0.5l0,0c0,0.3-0.2,0.5-0.5,0.5h-21c-0.3,0-0.5-0.2-0.5-0.5l0,0
	C387,278.3,387.2,278,387.5,278z"/>
<path class="st6" d="M311.5,278h21c0.3,0,0.5,0.2,0.5,0.5l0,0c0,0.3-0.2,0.5-0.5,0.5h-21c-0.3,0-0.5-0.2-0.5-0.5l0,0
	C311,278.3,311.2,278,311.5,278z"/>
<path class="st6" d="M413.5,288h21c0.3,0,0.5,0.2,0.5,0.5l0,0c0,0.3-0.2,0.5-0.5,0.5h-21c-0.3,0-0.5-0.2-0.5-0.5l0,0
	C413,288.3,413.2,288,413.5,288z"/>
<path class="st4" d="M448.5,260c0,0.6-0.4,1-1,1H69c-0.6,0-1-0.4-1-1l0,0c0-0.6,0.4-1,1-1h378.5C448,259,448.5,259.4,448.5,260
	L448.5,260z"/>
<path class="st4" d="M56.8,260c0,0.5-0.4,0.9-0.9,1H33.7c-0.5-0.1-0.9-0.5-0.9-1l0,0c0-0.5,0.4-0.9,0.9-1h22.2
	C56.4,259.1,56.8,259.5,56.8,260z"/>
<path class="st4" d="M477.1,260c0,0.5-0.4,1-0.9,1c0,0,0,0,0,0H460c-0.5-0.1-0.9-0.5-0.9-1l0,0c0-0.5,0.4-0.9,0.9-1h16.2
	C476.7,259,477.1,259.5,477.1,260C477.1,260,477.1,260,477.1,260L477.1,260z"/>
<path class="st0" d="M54.2,112c8.5,0,9.1-12.8,0.7-13.4c-0.3,0-0.7,0-1,0c-1.5,0-3,0.2-4.4,0.7c-1.3-8.1-8.9-13.5-17-12.2
	c-6.4,1.1-11.4,6.2-12.3,12.7c-1.8-0.9-3.8-1.3-5.9-1.3c-1.2,0-2.4,0.2-3.6,0.5c-7.4,2-5.7,13.1,2,13.1L54.2,112z"/>
<path class="st4" d="M420.4,260c1.1,0,2-0.2,1.9-0.4s0.8-0.6,1.9-0.8l13.4-2.7c1.1-0.2,1.8-1.3,1.6-2.4c0,0,0,0,0,0l-5.6-28.1
	c-0.2-1.1-1.3-1.8-2.4-1.6l-13.4,2.7c-1.1,0.2-2.1-0.5-2.4-1.6l-17.1-84.9c-0.2-1.1-1.3-1.8-2.4-1.6l-40.7,8.3
	c-1.2,0.3-2.2,1.1-2.7,2.2l-40.1,102.3c-0.4,1.2-0.5,2.5-0.3,3.8l0.5,2.7c0.2,1.1,1.2,2,2.4,2L420.4,260z M368.4,188.7
	c0.4-1,0.9-1,1.1,0.1l8.9,44.3c0.2,1.1-0.5,2.1-1.6,2.4l-25.4,5.1c-1.1,0.2-1.6-0.4-1.3-1.5L368.4,188.7z"/>
<g class="st7">
	<polygon class="st8" points="435.1,167.9 438,163.9 440.8,160 442.8,164.4 444.8,168.9 440,168.4 	"/>
	<polygon class="st8" points="172.6,49.8 176.1,44.2 179.6,38.5 182.7,44.3 185.9,50.2 179.3,50 	"/>
	<polygon class="st8" points="76.8,18.6 73.2,16.1 69.5,13.6 73.5,11.7 77.4,9.7 77.1,14.1 	"/>
	<polygon class="st8" points="377.2,108.4 373.5,109.6 369.8,110.8 370.6,107 371.4,103.2 374.3,105.8 	"/>
	<polygon class="st8" points="476.2,49 470.9,50 465.6,50 468.2,44.7 470.8,40.1 473.5,44.6 	"/>
	<polygon class="st8" points="298.9,154.9 294.2,152.5 289.5,150.2 293.9,147.3 298.2,144.4 298.6,149.6 	"/>
	<polygon class="st8" points="47.5,167.4 44.9,166.2 42.4,164.9 44.8,163.4 47.1,161.9 47.3,164.6 	"/>
	<polygon class="st8" points="115.2,83.2 112.5,82.7 109.7,82.2 111.5,80.1 113.3,77.9 114.3,80.6 	"/>
</g>
</svg>
